<?xml version="1.0" standalone="no"?>
<!DOCTYPE svg PUBLIC "-//W3C//DTD SVG 20010904//EN"
 "http://www.w3.org/TR/2001/REC-SVG-20010904/DTD/svg10.dtd">
<svg version="1.0" xmlns="http://www.w3.org/2000/svg"
 width="190.000000pt" height="190.000000pt" viewBox="0 0 190.000000 190.000000"
 preserveAspectRatio="xMidYMid meet">
<metadata>
Created by potrace 1.11, written by Peter Selinger 2001-2013
</metadata>
<g transform="translate(0.000000,190.000000) scale(0.100000,-0.100000)"
fill="#000000" stroke="none">
<path d="M1518 1873 c-3 -5 -4 -87 -4 -183 l1 -175 185 0 185 0 0 180 0 180
-182 3 c-100 1 -183 -1 -185 -5z"/>
<path d="M873 1636 c-57 -79 -103 -146 -103 -149 0 -4 252 -189 286 -210 8 -5
46 41 119 143 59 83 106 153 104 155 -12 11 -294 205 -298 205 -3 0 -52 -65
-108 -144z"/>
<path d="M18 1313 c-3 -5 -4 -87 -4 -183 l1 -175 185 0 185 0 0 180 0 180
-182 3 c-100 1 -183 -1 -185 -5z"/>
<path d="M1244 1052 l-141 -108 110 -144 c60 -80 114 -144 119 -142 6 1 73 50
149 109 l139 106 -28 38 c-111 151 -188 248 -197 248 -5 0 -73 -48 -151 -107z"/>
<path d="M18 843 c-3 -5 -4 -87 -4 -183 l1 -175 185 0 185 0 0 180 0 180 -182
3 c-100 1 -183 -1 -185 -5z"/>
<path d="M480 665 l0 -185 185 0 185 0 0 185 0 185 -185 0 -185 0 0 -185z"/>
<path d="M18 373 c-3 -5 -4 -87 -4 -183 l1 -175 185 0 185 0 0 180 0 180 -182
3 c-100 1 -183 -1 -185 -5z"/>
<path d="M480 195 l0 -185 185 0 185 0 0 185 0 185 -185 0 -185 0 0 -185z"/>
<path d="M950 195 l0 -185 185 0 185 0 0 185 0 185 -185 0 -185 0 0 -185z"/>
</g>
</svg>
